<svg
  width="5"
  height="23"
  viewBox="0 0 5 23"
  fill="none"
  xmlns="http://www.w3.org/2000/svg"
>
  <path
    d="M3.625 0.181818L3.41193 15.8636H0.940341L0.727273 0.181818H3.625ZM2.17614 22.1705C1.65057 22.1705 1.19957 21.9822 0.823154 21.6058C0.446733 21.2294 0.258523 20.7784 0.258523 20.2528C0.258523 19.7273 0.446733 19.2763 0.823154 18.8999C1.19957 18.5234 1.65057 18.3352 2.17614 18.3352C2.7017 18.3352 3.1527 18.5234 3.52912 18.8999C3.90554 19.2763 4.09375 19.7273 4.09375 20.2528C4.09375 20.6009 4.00497 20.9205 3.82742 21.2116C3.65696 21.5028 3.42614 21.7372 3.13494 21.9148C2.85085 22.0852 2.53125 22.1705 2.17614 22.1705Z"
    fill="white"
  />
</svg>