<svg width="800" height="800" viewBox="0 0 24 24" xmlns="http://www.w3.org/2000/svg">
    <path fill-rule="evenodd"
        d="M9.5 4.498 12 5.53l2.5-1.033a6.53 6.53 0 0 1 5 0l1.871.773c.38.157.629.537.629.96v12.242c0 .571-.448 1.034-1 1.034a.972.972 0 0 1-.371-.074l-1.129-.466a6.53 6.53 0 0 0-5 0L12 20l-2.5-1.033a6.53 6.53 0 0 0-5 0l-1.129.466a.99.99 0 0 1-1.3-.576A1.064 1.064 0 0 1 2 18.473V6.231c0-.423.249-.803.629-.96L4.5 4.498a6.53 6.53 0 0 1 5 0ZM5.264 6.346 4 6.868v10.146a8.528 8.528 0 0 1 6.264.104l.736.304V7.282l-2.264-.936a4.53 4.53 0 0 0-3.472 0Zm10 0L13 7.28v10.141l.736-.304A8.528 8.528 0 0 1 20 17.014V6.868l-1.264-.522a4.53 4.53 0 0 0-3.472 0Z" />
</svg>