<svg width="250" height="183" viewBox="0 0 250 183" fill="none" xmlns="http://www.w3.org/2000/svg">
<mask id="path-1-inside-1_0_1" fill="white">
<path d="M22.5 48H227.5V63C227.5 69.6274 222.127 75 215.5 75H34.5C27.8726 75 22.5 69.6274 22.5 63V48Z"/>
</mask>
<path d="M22.5 48H227.5V63C227.5 69.6274 222.127 75 215.5 75H34.5C27.8726 75 22.5 69.6274 22.5 63V48Z" fill="#BBBBBB"/>
<path d="M22.5 48H227.5H22.5ZM234.5 63C234.5 73.4934 225.993 82 215.5 82H34.5C24.0066 82 15.5 73.4934 15.5 63H29.5C29.5 65.7614 31.7386 68 34.5 68H215.5C218.261 68 220.5 65.7614 220.5 63H234.5ZM34.5 82C24.0066 82 15.5 73.4934 15.5 63V48H29.5V63C29.5 65.7614 31.7386 68 34.5 68V82ZM234.5 48V63C234.5 73.4934 225.993 82 215.5 82V68C218.261 68 220.5 65.7614 220.5 63V48H234.5Z" fill="#7C7C7C" mask="url(#path-1-inside-1_0_1)"/>
<path d="M125 46.5H18.1431C14.7502 46.5 13.9651 41.7519 17.1774 40.6597L124.034 4.32834C124.66 4.11543 125.34 4.11543 125.966 4.32834L232.823 40.6597C236.035 41.7519 235.25 46.5 231.857 46.5H125Z" fill="#D9D9D9" stroke="#7C7C7C" stroke-width="7"/>
<path d="M35.0795 62.1364C34.4659 62.1364 33.9375 61.9915 33.4943 61.7017C33.0511 61.4119 32.7102 61.0128 32.4716 60.5043C32.233 59.9957 32.1136 59.4148 32.1136 58.7614C32.1136 58.0966 32.2358 57.5099 32.4801 57.0014C32.7273 56.4901 33.071 56.0909 33.5114 55.804C33.9545 55.5142 34.4716 55.3693 35.0625 55.3693C35.5227 55.3693 35.9375 55.4545 36.3068 55.625C36.6761 55.7955 36.9787 56.0341 37.2145 56.3409C37.4503 56.6477 37.5966 57.0057 37.6534 57.4148H36.6477C36.571 57.1165 36.4006 56.8523 36.1364 56.6222C35.875 56.3892 35.5227 56.2727 35.0795 56.2727C34.6875 56.2727 34.3438 56.375 34.0483 56.5795C33.7557 56.7812 33.527 57.0668 33.3622 57.4361C33.2003 57.8026 33.1193 58.233 33.1193 58.7273C33.1193 59.233 33.1989 59.6733 33.358 60.0483C33.5199 60.4233 33.7472 60.7145 34.0398 60.9219C34.3352 61.1293 34.6818 61.233 35.0795 61.233C35.3409 61.233 35.5781 61.1875 35.7912 61.0966C36.0043 61.0057 36.1847 60.875 36.3324 60.7045C36.4801 60.5341 36.5852 60.3295 36.6477 60.0909H37.6534C37.5966 60.4773 37.456 60.8253 37.2315 61.1349C37.0099 61.4418 36.7159 61.6861 36.3494 61.8679C35.9858 62.0469 35.5625 62.1364 35.0795 62.1364ZM43.5895 64.4545V60.9943H43.5043C43.4304 61.1136 43.3253 61.2642 43.1889 61.446C43.0526 61.625 42.858 61.7855 42.6051 61.9276C42.3523 62.0668 42.0156 62.1364 41.5952 62.1364C41.0497 62.1364 40.5682 61.9986 40.1506 61.723C39.733 61.4446 39.4063 61.0526 39.1705 60.5469C38.9347 60.0384 38.8168 59.4375 38.8168 58.7443C38.8168 58.0568 38.9347 57.4602 39.1705 56.9545C39.4063 56.4489 39.7344 56.0582 40.1548 55.7827C40.5753 55.5071 41.0611 55.3693 41.6122 55.3693C42.0384 55.3693 42.375 55.4403 42.6222 55.5824C42.8722 55.7216 43.0625 55.8807 43.1932 56.0597C43.3267 56.2358 43.4304 56.3807 43.5043 56.4943H43.6236V55.4545H44.5952V64.4545H43.5895ZM41.7315 61.233C42.1349 61.233 42.4759 61.1278 42.7543 60.9176C43.0327 60.7045 43.2443 60.4105 43.3892 60.0355C43.5341 59.6577 43.6065 59.2216 43.6065 58.7273C43.6065 58.2386 43.5355 57.8111 43.3935 57.4446C43.2514 57.0753 43.0412 56.7884 42.7628 56.5838C42.4844 56.3764 42.1406 56.2727 41.7315 56.2727C41.3054 56.2727 40.9503 56.3821 40.6662 56.6009C40.3849 56.8168 40.1733 57.1108 40.0312 57.483C39.892 57.8523 39.8224 58.267 39.8224 58.7273C39.8224 59.1932 39.8935 59.6165 40.0355 59.9972C40.1804 60.375 40.3935 60.6761 40.6747 60.9006C40.9588 61.1222 41.3111 61.233 41.7315 61.233ZM46.5724 62V53.2727H47.5781V56.4943H47.6634C47.7372 56.3807 47.8395 56.2358 47.9702 56.0597C48.1037 55.8807 48.294 55.7216 48.5412 55.5824C48.7912 55.4403 49.1293 55.3693 49.5554 55.3693C50.1065 55.3693 50.5923 55.5071 51.0128 55.7827C51.4332 56.0582 51.7614 56.4489 51.9972 56.9545C52.233 57.4602 52.3509 58.0568 52.3509 58.7443C52.3509 59.4375 52.233 60.0384 51.9972 60.5469C51.7614 61.0526 51.4347 61.4446 51.017 61.723C50.5994 61.9986 50.1179 62.1364 49.5724 62.1364C49.152 62.1364 48.8153 62.0668 48.5625 61.9276C48.3097 61.7855 48.1151 61.625 47.9787 61.446C47.8423 61.2642 47.7372 61.1136 47.6634 60.9943H47.544V62H46.5724ZM47.5611 58.7273C47.5611 59.2216 47.6335 59.6577 47.7784 60.0355C47.9233 60.4105 48.1349 60.7045 48.4134 60.9176C48.6918 61.1278 49.0327 61.233 49.4361 61.233C49.8565 61.233 50.2074 61.1222 50.4886 60.9006C50.7727 60.6761 50.9858 60.375 51.1278 59.9972C51.2727 59.6165 51.3452 59.1932 51.3452 58.7273C51.3452 58.267 51.2741 57.8523 51.1321 57.483C50.9929 57.1108 50.7813 56.8168 50.4972 56.6009C50.2159 56.3821 49.8622 56.2727 49.4361 56.2727C49.027 56.2727 48.6832 56.3764 48.4048 56.5838C48.1264 56.7884 47.9162 57.0753 47.7741 57.4446C47.6321 57.8111 47.5611 58.2386 47.5611 58.7273ZM56.9403 53.2727V62H55.8835V54.3807H55.8324L53.7017 55.7955V54.7216L55.8835 53.2727H56.9403ZM62.3991 62.1193C61.8366 62.1193 61.3352 62.0227 60.8949 61.8295C60.4574 61.6364 60.1094 61.3679 59.8509 61.0241C59.5952 60.6776 59.456 60.2756 59.4332 59.8182H60.5071C60.5298 60.0994 60.6264 60.3423 60.7969 60.5469C60.9673 60.7486 61.1903 60.9048 61.4659 61.0156C61.7415 61.1264 62.0469 61.1818 62.3821 61.1818C62.7571 61.1818 63.0895 61.1165 63.3793 60.9858C63.669 60.8551 63.8963 60.6733 64.0611 60.4403C64.2259 60.2074 64.3082 59.9375 64.3082 59.6307C64.3082 59.3097 64.2287 59.027 64.0696 58.7827C63.9105 58.5355 63.6776 58.3423 63.3707 58.2031C63.0639 58.0639 62.6889 57.9943 62.2457 57.9943H61.5469V57.0568H62.2457C62.5923 57.0568 62.8963 56.9943 63.1577 56.8693C63.4219 56.7443 63.6278 56.5682 63.7756 56.3409C63.9261 56.1136 64.0014 55.8466 64.0014 55.5398C64.0014 55.2443 63.9361 54.9872 63.8054 54.7685C63.6747 54.5497 63.4901 54.3793 63.2514 54.2571C63.0156 54.1349 62.7372 54.0739 62.4162 54.0739C62.1151 54.0739 61.831 54.1293 61.5639 54.2401C61.2997 54.348 61.0838 54.5057 60.9162 54.7131C60.7486 54.9176 60.6577 55.1648 60.6435 55.4545H59.6207C59.6378 54.9972 59.7756 54.5966 60.0341 54.2528C60.2926 53.9062 60.6307 53.6364 61.0483 53.4432C61.4688 53.25 61.9304 53.1534 62.4332 53.1534C62.973 53.1534 63.4361 53.2628 63.8224 53.4815C64.2088 53.6974 64.5057 53.983 64.7131 54.3381C64.9205 54.6932 65.0241 55.0767 65.0241 55.4886C65.0241 55.9801 64.8949 56.3991 64.6364 56.7457C64.3807 57.0923 64.0327 57.3324 63.5923 57.4659V57.5341C64.1435 57.625 64.5739 57.8594 64.8835 58.2372C65.1932 58.6122 65.348 59.0767 65.348 59.6307C65.348 60.1051 65.2188 60.5312 64.9602 60.9091C64.7045 61.2841 64.3551 61.5795 63.9119 61.7955C63.4688 62.0114 62.9645 62.1193 62.3991 62.1193Z" fill="#D7D7F7" fill-opacity="0.6"/>
<rect x="48.5" y="75" width="17" height="76" fill="#7C7C7C"/>
<rect x="184.5" y="75" width="17" height="76" fill="#7C7C7C"/>
<rect x="150.5" y="75" width="17" height="76" fill="#7C7C7C"/>
<rect x="116.5" y="75" width="17" height="76" fill="#7C7C7C"/>
<rect x="82.5" y="75" width="17" height="76" fill="#7C7C7C"/>
<path d="M222.421 151H29.4461C28.2623 151 27.1892 151.696 26.7067 152.777L16.8852 174.777C15.9994 176.761 17.4515 179 19.6247 179H230.671C232.766 179 234.215 176.908 233.48 174.947L225.23 152.947C224.791 151.776 223.672 151 222.421 151Z" fill="#D9D9D9" stroke="#7C7C7C" stroke-width="7"/>
</svg>
